<mxfile host="65bd71144e">
    <diagram id="TblW12fGxgtegXIIMCht" name="Page-1">
        <mxGraphModel dx="1417" dy="697" grid="1" gridSize="10" guides="0" tooltips="1" connect="1" arrows="1" fold="1" page="1" pageScale="1" pageWidth="1100" pageHeight="850" math="0" shadow="0">
            <root>
                <mxCell id="0"/>
                <mxCell id="1" parent="0"/>
                <mxCell id="25" value="Triggers" style="edgeStyle=orthogonalEdgeStyle;html=1;dashed=1;" parent="1" source="24" target="30" edge="1">
                    <mxGeometry relative="1" as="geometry">
                        <mxPoint x="880.7692307692307" y="251.48936170212767" as="targetPoint"/>
                    </mxGeometry>
                </mxCell>
                <mxCell id="64" value="Workflow" style="swimlane;horizontal=0;whiteSpace=wrap;html=1;dashed=1;dashPattern=8 8;glass=0;fillStyle=auto;swimlaneFillColor=none;gradientColor=none;" parent="1" vertex="1">
                    <mxGeometry x="10" y="360" width="1080" height="270" as="geometry">
                        <mxRectangle x="260" y="420" width="40" height="80" as="alternateBounds"/>
                    </mxGeometry>
                </mxCell>
                <mxCell id="34" value="" style="group" parent="64" vertex="1" connectable="0">
                    <mxGeometry x="183" y="10" width="390" height="60" as="geometry"/>
                </mxCell>
                <mxCell id="30" value="" style="ellipse;whiteSpace=wrap;html=1;aspect=fixed;" parent="34" vertex="1">
                    <mxGeometry y="20" width="30.77" height="30.77" as="geometry"/>
                </mxCell>
                <mxCell id="16" value="Plan Dev" style="shape=process;whiteSpace=wrap;html=1;backgroundOutline=1;fillColor=#60a917;fontColor=#ffffff;strokeColor=#2D7600;" parent="34" vertex="1">
                    <mxGeometry x="60" width="86.08695652173913" height="27.692307692307693" as="geometry"/>
                </mxCell>
                <mxCell id="31" style="edgeStyle=orthogonalEdgeStyle;html=1;entryX=0;entryY=0.75;entryDx=0;entryDy=0;" parent="34" source="30" target="16" edge="1">
                    <mxGeometry relative="1" as="geometry"/>
                </mxCell>
                <mxCell id="17" value="Plan Prd" style="shape=process;whiteSpace=wrap;html=1;backgroundOutline=1;fillColor=#60a917;fontColor=#ffffff;strokeColor=#2D7600;" parent="34" vertex="1">
                    <mxGeometry x="60" y="32.30769230769231" width="86.08695652173913" height="27.692307692307693" as="geometry"/>
                </mxCell>
                <mxCell id="32" style="edgeStyle=orthogonalEdgeStyle;html=1;" parent="34" source="30" target="17" edge="1">
                    <mxGeometry relative="1" as="geometry"/>
                </mxCell>
                <mxCell id="18" value="Apply Dev" style="shape=process;whiteSpace=wrap;html=1;backgroundOutline=1;fillColor=#60a917;fontColor=#ffffff;strokeColor=#2D7600;" parent="34" vertex="1">
                    <mxGeometry x="168.47826086956525" width="86.08695652173913" height="27.692307692307693" as="geometry"/>
                </mxCell>
                <mxCell id="19" value="" style="edgeStyle=orthogonalEdgeStyle;html=1;" parent="34" source="16" target="18" edge="1">
                    <mxGeometry relative="1" as="geometry"/>
                </mxCell>
                <mxCell id="20" value="Apply Prd" style="shape=process;whiteSpace=wrap;html=1;backgroundOutline=1;fillColor=#bac8d3;strokeColor=#23445d;" parent="34" vertex="1">
                    <mxGeometry x="268.9130434782609" y="32.30769230769231" width="86.08695652173913" height="27.692307692307693" as="geometry"/>
                </mxCell>
                <mxCell id="21" value="" style="edgeStyle=orthogonalEdgeStyle;html=1;" parent="34" source="17" target="20" edge="1">
                    <mxGeometry relative="1" as="geometry"/>
                </mxCell>
                <mxCell id="22" style="edgeStyle=orthogonalEdgeStyle;html=1;entryX=0;entryY=0.5;entryDx=0;entryDy=0;exitX=0.5;exitY=1;exitDx=0;exitDy=0;" parent="34" source="18" target="20" edge="1">
                    <mxGeometry relative="1" as="geometry"/>
                </mxCell>
                <mxCell id="33" value="Approval Canceled" style="text;html=1;strokeColor=none;fillColor=none;align=center;verticalAlign=middle;whiteSpace=wrap;rounded=0;" parent="34" vertex="1">
                    <mxGeometry x="285" width="60" height="30" as="geometry"/>
                </mxCell>
                <mxCell id="69" value="Plan Dev" style="shape=process;whiteSpace=wrap;html=1;backgroundOutline=1;fillColor=#60a917;fontColor=#ffffff;strokeColor=#2D7600;" parent="64" vertex="1">
                    <mxGeometry x="694" y="9" width="86.08695652173913" height="27.692307692307693" as="geometry"/>
                </mxCell>
                <mxCell id="70" style="edgeStyle=orthogonalEdgeStyle;html=1;entryX=0;entryY=0.75;entryDx=0;entryDy=0;" parent="64" source="68" target="69" edge="1">
                    <mxGeometry relative="1" as="geometry"/>
                </mxCell>
                <mxCell id="71" value="Plan Prd" style="shape=process;whiteSpace=wrap;html=1;backgroundOutline=1;fillColor=#60a917;fontColor=#ffffff;strokeColor=#2D7600;" parent="64" vertex="1">
                    <mxGeometry x="694" y="41.30769230769231" width="86.08695652173913" height="27.692307692307693" as="geometry"/>
                </mxCell>
                <mxCell id="72" style="edgeStyle=orthogonalEdgeStyle;html=1;" parent="64" source="68" target="71" edge="1">
                    <mxGeometry relative="1" as="geometry"/>
                </mxCell>
                <mxCell id="73" value="Apply Dev" style="shape=process;whiteSpace=wrap;html=1;backgroundOutline=1;fillColor=#60a917;fontColor=#ffffff;strokeColor=#2D7600;" parent="64" vertex="1">
                    <mxGeometry x="807.4782608695652" y="9" width="86.08695652173913" height="27.692307692307693" as="geometry"/>
                </mxCell>
                <mxCell id="74" value="" style="edgeStyle=orthogonalEdgeStyle;html=1;" parent="64" source="69" target="73" edge="1">
                    <mxGeometry relative="1" as="geometry"/>
                </mxCell>
                <mxCell id="75" value="Apply Prd" style="shape=process;whiteSpace=wrap;html=1;backgroundOutline=1;fillColor=#bac8d3;strokeColor=#23445d;" parent="64" vertex="1">
                    <mxGeometry x="907.9130434782609" y="41.30769230769231" width="86.08695652173913" height="27.692307692307693" as="geometry"/>
                </mxCell>
                <mxCell id="76" value="" style="edgeStyle=orthogonalEdgeStyle;html=1;" parent="64" source="71" target="75" edge="1">
                    <mxGeometry relative="1" as="geometry"/>
                </mxCell>
                <mxCell id="77" style="edgeStyle=orthogonalEdgeStyle;html=1;entryX=0;entryY=0.5;entryDx=0;entryDy=0;exitX=0.5;exitY=1;exitDx=0;exitDy=0;" parent="64" source="73" target="75" edge="1">
                    <mxGeometry relative="1" as="geometry"/>
                </mxCell>
                <mxCell id="78" value="Approval Canceled" style="text;html=1;strokeColor=none;fillColor=none;align=center;verticalAlign=middle;whiteSpace=wrap;rounded=0;" parent="64" vertex="1">
                    <mxGeometry x="924" y="9" width="60" height="30" as="geometry"/>
                </mxCell>
                <mxCell id="68" value="" style="ellipse;whiteSpace=wrap;html=1;aspect=fixed;" parent="64" vertex="1">
                    <mxGeometry x="634" y="29" width="30.77" height="30.77" as="geometry"/>
                </mxCell>
                <mxCell id="111" value="Using Workflow Concurrency forces sequential executions of PRs and avoids issues with state file locks.&amp;nbsp; However, 2nd workflow run will not execute until first is completely finished including a deployment to production that is waiting approval.&lt;br&gt;And the environment is not cumulative so all changes from PR1 are removed even if there are no conflicting changes." style="text;html=1;strokeColor=none;fillColor=none;align=left;verticalAlign=top;whiteSpace=wrap;rounded=0;" parent="64" vertex="1">
                    <mxGeometry x="520" y="90" width="230" height="110" as="geometry"/>
                </mxCell>
                <mxCell id="113" style="edgeStyle=none;html=1;entryX=0;entryY=0.5;entryDx=0;entryDy=0;fontColor=#000000;" parent="64" source="20" target="68" edge="1">
                    <mxGeometry relative="1" as="geometry"/>
                </mxCell>
                <mxCell id="81" value="Triggers" style="edgeStyle=orthogonalEdgeStyle;html=1;dashed=1;entryX=0.5;entryY=0;entryDx=0;entryDy=0;" parent="1" source="58" target="68" edge="1">
                    <mxGeometry relative="1" as="geometry">
                        <mxPoint x="650" y="390" as="targetPoint"/>
                        <Array as="points">
                            <mxPoint x="660" y="226"/>
                            <mxPoint x="660" y="390"/>
                            <mxPoint x="659" y="390"/>
                        </Array>
                    </mxGeometry>
                </mxCell>
                <mxCell id="84" value="Git Changes" style="swimlane;horizontal=0;whiteSpace=wrap;html=1;glass=0;dashed=1;dashPattern=8 8;fillStyle=auto;gradientColor=none;" parent="1" vertex="1">
                    <mxGeometry x="10" y="80" width="1080" height="270" as="geometry"/>
                </mxCell>
                <mxCell id="9" value="Main" style="rounded=1;whiteSpace=wrap;html=1;fillColor=#1ba1e2;fontColor=#ffffff;strokeColor=#006EAF;" parent="84" vertex="1">
                    <mxGeometry x="979.9992307692307" y="20" width="89.23076923076923" height="39.57446808510638" as="geometry"/>
                </mxCell>
                <mxCell id="10" value="branch-1" style="rounded=1;whiteSpace=wrap;html=1;fillColor=#f0a30a;fontColor=#000000;strokeColor=#BD7000;" parent="84" vertex="1">
                    <mxGeometry x="979.9992307692307" y="76.063829787234" width="89.23076923076923" height="39.57446808510638" as="geometry"/>
                </mxCell>
                <mxCell id="11" value="branch-2" style="rounded=1;whiteSpace=wrap;html=1;fillColor=#fa6800;fontColor=#000000;strokeColor=#C73500;" parent="84" vertex="1">
                    <mxGeometry x="979.9992307692307" y="135.42553191489355" width="89.23076923076923" height="39.57446808510638" as="geometry"/>
                </mxCell>
                <mxCell id="23" value="" style="edgeStyle=orthogonalEdgeStyle;html=1;entryX=0;entryY=0.5;entryDx=0;entryDy=0;" parent="84" source="2" target="9" edge="1">
                    <mxGeometry relative="1" as="geometry">
                        <mxPoint x="126.66666666666674" y="39.78723404255311" as="targetPoint"/>
                    </mxGeometry>
                </mxCell>
                <mxCell id="2" value="Main" style="ellipse;whiteSpace=wrap;html=1;aspect=fixed;fillColor=#1ba1e2;fontColor=#ffffff;strokeColor=#006EAF;align=center;verticalAlign=bottom;labelPosition=center;verticalLabelPosition=top;" parent="84" vertex="1">
                    <mxGeometry x="56" y="23.29787234042553" width="32.97872340425532" height="32.97872340425532" as="geometry"/>
                </mxCell>
                <mxCell id="12" value="" style="ellipse;whiteSpace=wrap;html=1;aspect=fixed;fillColor=#f0a30a;fontColor=#000000;strokeColor=#BD7000;align=center;verticalAlign=bottom;labelPosition=center;verticalLabelPosition=top;" parent="84" vertex="1">
                    <mxGeometry x="122.92307692307692" y="79.36170212765957" width="32.97872340425532" height="32.97872340425532" as="geometry"/>
                </mxCell>
                <mxCell id="13" style="edgeStyle=orthogonalEdgeStyle;html=1;entryX=0;entryY=0.5;entryDx=0;entryDy=0;exitX=0.5;exitY=1;exitDx=0;exitDy=0;" parent="84" source="2" target="12" edge="1">
                    <mxGeometry relative="1" as="geometry"/>
                </mxCell>
                <mxCell id="14" value="" style="ellipse;whiteSpace=wrap;html=1;aspect=fixed;fillColor=#fa6800;fontColor=#000000;strokeColor=#C73500;align=center;verticalAlign=bottom;labelPosition=center;verticalLabelPosition=top;" parent="84" vertex="1">
                    <mxGeometry x="122.92307692307692" y="128.82978723404256" width="32.97872340425532" height="32.97872340425532" as="geometry"/>
                </mxCell>
                <mxCell id="15" style="edgeStyle=orthogonalEdgeStyle;html=1;entryX=0;entryY=0.5;entryDx=0;entryDy=0;exitX=0.5;exitY=1;exitDx=0;exitDy=0;" parent="84" source="2" target="14" edge="1">
                    <mxGeometry relative="1" as="geometry"/>
                </mxCell>
                <mxCell id="24" value="PR 1" style="ellipse;whiteSpace=wrap;html=1;aspect=fixed;fillColor=#e6d0de;strokeColor=#996185;align=center;verticalAlign=bottom;labelPosition=center;verticalLabelPosition=top;gradientColor=#d5739d;" parent="84" vertex="1">
                    <mxGeometry x="182.4102564102564" y="79.36170212765957" width="32.97872340425532" height="32.97872340425532" as="geometry"/>
                </mxCell>
                <mxCell id="26" style="edgeStyle=orthogonalEdgeStyle;html=1;dashed=1;dashPattern=12 12;" parent="84" source="12" target="24" edge="1">
                    <mxGeometry relative="1" as="geometry"/>
                </mxCell>
                <mxCell id="58" value="PR 2" style="ellipse;whiteSpace=wrap;html=1;aspect=fixed;fillColor=#e6d0de;strokeColor=#996185;align=center;verticalAlign=bottom;labelPosition=center;verticalLabelPosition=top;gradientColor=#d5739d;" parent="84" vertex="1">
                    <mxGeometry x="226.00025641025638" y="129.00170212765954" width="32.97872340425532" height="32.97872340425532" as="geometry"/>
                </mxCell>
                <mxCell id="62" style="edgeStyle=orthogonalEdgeStyle;html=1;dashed=1;exitX=1;exitY=0.5;exitDx=0;exitDy=0;entryX=0;entryY=0.5;entryDx=0;entryDy=0;" parent="84" source="14" target="58" edge="1">
                    <mxGeometry relative="1" as="geometry">
                        <mxPoint x="209.385" y="-79.2299999999999" as="targetPoint"/>
                        <mxPoint x="208.89961811238402" y="89.36170212765956" as="sourcePoint"/>
                    </mxGeometry>
                </mxCell>
                <mxCell id="86" value="Environments" style="swimlane;horizontal=0;whiteSpace=wrap;html=1;glass=0;dashed=1;dashPattern=8 8;fillStyle=auto;gradientColor=none;" parent="1" vertex="1">
                    <mxGeometry x="10" y="640" width="1080" height="200" as="geometry"/>
                </mxCell>
                <mxCell id="87" value="Development is based on PR1" style="rounded=1;whiteSpace=wrap;html=1;glass=0;dashed=1;dashPattern=8 8;fillStyle=auto;gradientColor=#ea6b66;fillColor=#f8cecc;strokeColor=#b85450;fontColor=#000000;" parent="86" vertex="1">
                    <mxGeometry x="335" y="20" width="120" height="60" as="geometry"/>
                </mxCell>
                <mxCell id="88" value="Development is based on PR2" style="rounded=1;whiteSpace=wrap;html=1;glass=0;dashed=1;dashPattern=8 8;fillStyle=auto;gradientColor=#ea6b66;fillColor=#f8cecc;strokeColor=#b85450;fontColor=#000000;" parent="86" vertex="1">
                    <mxGeometry x="791" y="20" width="120" height="60" as="geometry"/>
                </mxCell>
                <mxCell id="91" value="&lt;font color=&quot;#000000&quot;&gt;Production&lt;/font&gt;" style="rounded=1;whiteSpace=wrap;html=1;glass=0;dashed=1;dashPattern=8 8;fillStyle=auto;gradientColor=#ffd966;fillColor=#fff2cc;strokeColor=#d6b656;" parent="86" vertex="1">
                    <mxGeometry x="338" y="110" width="120" height="60" as="geometry"/>
                </mxCell>
                <mxCell id="92" value="&lt;font color=&quot;#000000&quot;&gt;Production&lt;/font&gt;" style="rounded=1;whiteSpace=wrap;html=1;glass=0;dashed=1;dashPattern=8 8;fillStyle=auto;gradientColor=#ffd966;fillColor=#fff2cc;strokeColor=#d6b656;" parent="86" vertex="1">
                    <mxGeometry x="794" y="110" width="120" height="60" as="geometry"/>
                </mxCell>
                <mxCell id="98" value="Development represents&amp;nbsp; PR 2 without PR 1 changes" style="text;html=1;strokeColor=none;fillColor=none;align=center;verticalAlign=middle;whiteSpace=wrap;rounded=0;glass=0;dashed=1;dashPattern=8 8;fillStyle=auto;fontColor=#FFFFFF;" parent="86" vertex="1">
                    <mxGeometry x="660" y="20" width="130" height="50" as="geometry"/>
                </mxCell>
                <mxCell id="89" style="edgeStyle=orthogonalEdgeStyle;html=1;dashed=1;" parent="1" source="18" target="87" edge="1">
                    <mxGeometry relative="1" as="geometry"/>
                </mxCell>
                <mxCell id="90" style="edgeStyle=orthogonalEdgeStyle;html=1;dashed=1;" parent="1" source="73" target="88" edge="1">
                    <mxGeometry relative="1" as="geometry"/>
                </mxCell>
                <mxCell id="93" style="edgeStyle=orthogonalEdgeStyle;html=1;entryX=1;entryY=0.5;entryDx=0;entryDy=0;dashed=1;fontColor=#000000;" parent="1" source="20" target="91" edge="1">
                    <mxGeometry relative="1" as="geometry"/>
                </mxCell>
                <mxCell id="94" value="&lt;font color=&quot;#ffffff&quot;&gt;Not applied No changes&lt;/font&gt;" style="edgeLabel;html=1;align=center;verticalAlign=middle;resizable=0;points=[];fontColor=#000000;" parent="93" vertex="1" connectable="0">
                    <mxGeometry x="0.3425" y="2" relative="1" as="geometry">
                        <mxPoint y="40" as="offset"/>
                    </mxGeometry>
                </mxCell>
                <mxCell id="95" style="edgeStyle=orthogonalEdgeStyle;html=1;entryX=1;entryY=0.5;entryDx=0;entryDy=0;dashed=1;fontColor=#FFFFFF;" parent="1" source="75" target="92" edge="1">
                    <mxGeometry relative="1" as="geometry"/>
                </mxCell>
                <mxCell id="96" value="Not Applied No Changes" style="edgeLabel;html=1;align=center;verticalAlign=middle;resizable=0;points=[];fontColor=#FFFFFF;" parent="95" vertex="1" connectable="0">
                    <mxGeometry x="0.2037" y="3" relative="1" as="geometry">
                        <mxPoint y="73" as="offset"/>
                    </mxGeometry>
                </mxCell>
                <mxCell id="114" value="Multiple PRs to main branch" style="text;html=1;strokeColor=none;fillColor=none;align=center;verticalAlign=middle;whiteSpace=wrap;rounded=0;fontSize=22;" vertex="1" parent="1">
                    <mxGeometry x="10" y="20" width="280" height="30" as="geometry"/>
                </mxCell>
            </root>
        </mxGraphModel>
    </diagram>
</mxfile>